<svg id="visual" viewBox="0 0 900 600" width="900" height="600" xmlns="http://www.w3.org/2000/svg" xmlns:xlink="http://www.w3.org/1999/xlink" version="1.1"><rect x="0" y="0" width="900" height="600" fill="#001220"></rect><defs><linearGradient id="grad1_0" x1="33.3%" y1="0%" x2="100%" y2="100%"><stop offset="20%" stop-color="#fbae3c" stop-opacity="1"></stop><stop offset="80%" stop-color="#fbae3c" stop-opacity="1"></stop></linearGradient></defs><defs><linearGradient id="grad1_1" x1="33.3%" y1="0%" x2="100%" y2="100%"><stop offset="20%" stop-color="#fbae3c" stop-opacity="1"></stop><stop offset="80%" stop-color="#cc5867" stop-opacity="1"></stop></linearGradient></defs><defs><linearGradient id="grad1_2" x1="33.3%" y1="0%" x2="100%" y2="100%"><stop offset="20%" stop-color="#593762" stop-opacity="1"></stop><stop offset="80%" stop-color="#cc5867" stop-opacity="1"></stop></linearGradient></defs><defs><linearGradient id="grad1_3" x1="33.3%" y1="0%" x2="100%" y2="100%"><stop offset="20%" stop-color="#593762" stop-opacity="1"></stop><stop offset="80%" stop-color="#001220" stop-opacity="1"></stop></linearGradient></defs><defs><linearGradient id="grad2_0" x1="0%" y1="0%" x2="66.7%" y2="100%"><stop offset="20%" stop-color="#fbae3c" stop-opacity="1"></stop><stop offset="80%" stop-color="#fbae3c" stop-opacity="1"></stop></linearGradient></defs><defs><linearGradient id="grad2_1" x1="0%" y1="0%" x2="66.7%" y2="100%"><stop offset="20%" stop-color="#cc5867" stop-opacity="1"></stop><stop offset="80%" stop-color="#fbae3c" stop-opacity="1"></stop></linearGradient></defs><defs><linearGradient id="grad2_2" x1="0%" y1="0%" x2="66.7%" y2="100%"><stop offset="20%" stop-color="#cc5867" stop-opacity="1"></stop><stop offset="80%" stop-color="#593762" stop-opacity="1"></stop></linearGradient></defs><defs><linearGradient id="grad2_3" x1="0%" y1="0%" x2="66.7%" y2="100%"><stop offset="20%" stop-color="#001220" stop-opacity="1"></stop><stop offset="80%" stop-color="#593762" stop-opacity="1"></stop></linearGradient></defs><g transform="translate(900, 0)"><path d="M0 486.7C-67.9 484.2 -135.7 481.6 -186.3 449.7C-236.8 417.8 -270 356.5 -307.6 307.6C-345.1 258.7 -387 222.2 -417.6 173C-448.2 123.8 -467.5 61.9 -486.7 0L0 0Z" fill="#232745"></path><path d="M0 365.1C-50.9 363.1 -101.8 361.2 -139.7 337.3C-177.6 313.3 -202.5 267.4 -230.7 230.7C-258.9 194 -290.3 166.6 -313.2 129.7C-336.1 92.8 -350.6 46.4 -365.1 0L0 0Z" fill="#96446e"></path><path d="M0 243.4C-33.9 242.1 -67.9 240.8 -93.1 224.8C-118.4 208.9 -135 178.2 -153.8 153.8C-172.6 129.3 -193.5 111.1 -208.8 86.5C-224.1 61.9 -233.7 30.9 -243.4 0L0 0Z" fill="#f17c53"></path><path d="M0 121.7C-17 121 -33.9 120.4 -46.6 112.4C-59.2 104.4 -67.5 89.1 -76.9 76.9C-86.3 64.7 -96.8 55.5 -104.4 43.2C-112 30.9 -116.9 15.5 -121.7 0L0 0Z" fill="#fbae3c"></path></g><g transform="translate(0, 600)"><path d="M0 -486.7C70.7 -487.9 141.4 -489 186.3 -449.7C231.1 -410.4 250 -330.8 277.9 -277.9C305.7 -225 342.5 -198.8 378.8 -156.9C415.1 -115 450.9 -57.5 486.7 0L0 0Z" fill="#232745"></path><path d="M0 -365.1C53 -365.9 106.1 -366.7 139.7 -337.3C173.3 -307.8 187.5 -248.1 208.4 -208.4C229.3 -168.7 256.9 -149.1 284.1 -117.7C311.3 -86.3 338.2 -43.1 365.1 0L0 0Z" fill="#96446e"></path><path d="M0 -243.4C35.4 -243.9 70.7 -244.5 93.1 -224.8C115.6 -205.2 125 -165.4 138.9 -138.9C152.9 -112.5 171.2 -99.4 189.4 -78.5C207.5 -57.5 225.5 -28.8 243.4 0L0 0Z" fill="#f17c53"></path><path d="M0 -121.7C17.7 -122 35.4 -122.2 46.6 -112.4C57.8 -102.6 62.5 -82.7 69.5 -69.5C76.4 -56.2 85.6 -49.7 94.7 -39.2C103.8 -28.8 112.7 -14.4 121.7 0L0 0Z" fill="#fbae3c"></path></g></svg>